<?xml version="1.0" encoding="UTF-8"?>
<svg width="46px" height="44px" viewBox="0 0 46 44" version="1.1" xmlns="http://www.w3.org/2000/svg" xmlns:xlink="http://www.w3.org/1999/xlink">
    <!-- Generator: Sketch 45.2 (43514) - http://www.bohemiancoding.com/sketch -->
    <title>github-logo</title>
    <desc>Created with Sketch.</desc>
    <defs></defs>
    <g id="Page-1" stroke="none" stroke-width="1" fill="none" fill-rule="evenodd">
        <g id="Desktop-HD" transform="translate(-231.000000, -951.000000)" fill-rule="nonzero" fill="#FFFFFF">
            <g id="github-logo" transform="translate(231.000000, 951.000000)">
                <path d="M42.8463655,11.1708553 C40.7929169,7.74577742 38.007545,5.03413853 34.4895167,3.03532689 C30.9709648,1.0364133 27.129755,0.0372113766 22.9631645,0.0372113766 C18.7970976,0.0372113766 14.9546311,1.03671915 11.4368123,3.03532689 C7.91846981,5.03403658 5.13320262,7.74577742 3.07975401,11.1708553 C1.02661958,14.5958311 0,18.3359313 0,22.3910538 C0,27.2621759 1.45986707,31.6424137 4.3803343,35.5328886 C7.30048734,39.4236694 11.0728928,42.115938 15.6972364,43.6100002 C16.2355231,43.7072596 16.6340019,43.6388518 16.8930917,43.4065101 C17.1522861,43.1738625 17.2817263,42.8824923 17.2817263,42.5336229 C17.2817263,42.4754101 17.2765948,41.9516982 17.2666459,40.9618756 C17.2563828,39.9720529 17.2515655,39.1085451 17.2515655,38.3717598 L16.5638361,38.4875739 C16.1253524,38.5657687 15.5721947,38.5989022 14.9043631,38.5895229 C14.2368457,38.5804494 13.5438801,38.5123475 12.8264089,38.3857269 C12.1086234,38.2602277 11.4410013,37.9691633 10.8230188,37.5131456 C10.2053505,37.0571278 9.76686679,36.4602165 9.50767231,35.7233293 L9.20868232,35.0535245 C9.00939056,34.6075997 8.69563434,34.1122296 8.26699475,33.5692494 C7.83835515,33.0257594 7.40489821,32.6573158 6.96641446,32.4633069 L6.7570691,32.3174179 C6.61757535,32.2204644 6.4881352,32.1035289 6.36843448,31.9678349 C6.24883848,31.8321408 6.15929857,31.6963447 6.09950057,31.5603448 C6.03959785,31.4242429 6.08923752,31.3126088 6.2489432,31.2250346 C6.40864889,31.1374604 6.69727111,31.0949477 7.11606655,31.0949477 L7.71383708,31.1819102 C8.11252531,31.2596973 8.60567553,31.492039 9.19391609,31.8803626 C9.78184247,32.2683804 10.2651485,32.772824 10.643939,33.3934893 C11.1026347,34.1893031 11.6552687,34.7956956 12.303412,35.2129727 C12.9510317,35.6302499 13.6039923,35.8385317 14.2616656,35.8385317 C14.9193388,35.8385317 15.4873674,35.7900039 15.9659609,35.6934583 C16.4440307,35.5964028 16.892568,35.4505139 17.3113635,35.2566069 C17.4907575,33.9559419 17.9791951,32.9567399 18.7762574,32.2582875 C17.6402001,32.1420657 16.6188168,31.9670193 15.7115837,31.7342697 C14.8048743,31.5012144 13.8678994,31.1229837 12.9012873,30.5985581 C11.9341515,30.0748463 11.131853,29.4245137 10.4941822,28.648682 C9.8564067,27.8724425 9.33299094,26.8533605 8.92466801,25.5923536 C8.51613562,24.330837 8.31181706,22.8756173 8.31181706,21.2262867 C8.31181706,18.8778921 9.09934937,16.8794882 10.6740998,15.2299538 C9.93641663,13.4644014 10.0060588,11.4851639 10.8832357,9.29244535 C11.461318,9.11760286 12.3185971,9.24881119 13.4546544,9.68525476 C14.5909211,10.1219022 15.4228568,10.495953 15.9512994,10.8060818 C16.4797419,11.1161087 16.9031453,11.3788312 17.2221377,11.5919045 C19.0762946,11.0875629 20.9897258,10.8353412 22.962955,10.8353412 C24.9361843,10.8353412 26.8500344,11.0875629 28.704296,11.5919045 L29.8404579,10.893656 C30.617413,10.4277492 31.5349091,10.0007868 32.590747,9.61266709 C33.6472132,9.22475123 34.4550622,9.1179087 35.0134561,9.2927512 C35.9101119,11.4855717 35.9900171,13.4647072 35.2521244,15.2302596 C36.8267702,16.8797941 37.6146167,18.8787077 37.6146167,21.2265926 C37.6146167,22.8759231 37.409565,24.3357305 37.001661,25.6069323 C36.5932333,26.878338 36.0653144,27.8964005 35.4176947,28.6632607 C34.769342,29.430019 33.9619119,30.075254 32.9952998,30.598864 C32.0284782,31.1228817 31.0911891,31.5011124 30.1844797,31.7341678 C29.2773514,31.9672232 28.2559681,32.1423715 27.1199108,32.2587972 C28.1560604,33.1316844 28.6742399,34.5095248 28.6742399,36.3917068 L28.6742399,42.5328073 C28.6742399,42.8816767 28.7988627,43.172945 29.0483177,43.4056945 C29.2974586,43.6380362 29.6909106,43.706444 30.2291973,43.6090827 C34.8541693,42.1152243 38.6265747,39.4228538 41.546623,35.532073 C44.4663572,31.6415981 45.9267479,27.2613603 45.9267479,22.3902382 C45.9257006,18.3356255 44.8985574,14.5958311 42.8463655,11.1708553 Z" id="Shape"></path>
            </g>
        </g>
    </g>
</svg>