<?xml version="1.0" encoding="UTF-8"?>
<svg width="48px" height="47px" viewBox="0 0 48 47" version="1.1" xmlns="http://www.w3.org/2000/svg" xmlns:xlink="http://www.w3.org/1999/xlink">
    <!-- Generator: Sketch 45.2 (43514) - http://www.bohemiancoding.com/sketch -->
    <title>instagram-logo</title>
    <desc>Created with Sketch.</desc>
    <defs></defs>
    <g id="Page-1" stroke="none" stroke-width="1" fill="none" fill-rule="evenodd">
        <g id="Desktop-HD" transform="translate(-287.000000, -951.000000)" fill-rule="nonzero" fill="#FFFFFF">
            <g id="instagram-logo" transform="translate(287.115681, 951.000000)">
                <g id="Group">
                    <path d="M23.8332763,27.6192367 C26.4628572,27.6192367 28.606652,25.5530775 28.606652,23.0123228 C28.606652,22.0093689 28.2667938,21.0833514 27.7042037,20.3269647 C26.8372772,19.1664303 25.4279217,18.4054089 23.8361565,18.4054089 C22.2434312,18.4054089 20.8350358,19.1655033 19.9661893,20.3260378 C19.401679,21.0824244 19.064701,22.0084419 19.0637409,23.0113958 C19.0608608,25.5521506 21.2027355,27.6192367 23.8332763,27.6192367 Z" id="Shape"></path>
                    <polygon id="Shape" points="34.2527143 17.3765006 34.2527143 13.51485 34.2527143 12.9401444 33.6546023 12.9419983 29.6569482 12.9540486 29.672309 17.3913317"></polygon>
                    <path d="M23.8342364,0 C10.6920926,0 0,10.3233803 0,23.0123228 C0,35.7003383 10.6920926,46.0246456 23.8342364,46.0246456 C36.9754202,46.0246456 47.6684728,35.7003383 47.6684728,23.0123228 C47.6684728,10.3233803 36.9773403,0 23.8342364,0 Z M37.3892023,20.3269647 L37.3892023,31.0424425 C37.3892023,33.8334722 35.0389965,36.1017053 32.1502017,36.1017053 L15.5182711,36.1017053 C12.6285163,36.1017053 10.2792705,33.8334722 10.2792705,31.0424425 L10.2792705,20.3269647 L10.2792705,14.9840569 C10.2792705,12.1939542 12.6285163,9.92572111 15.5182711,9.92572111 L32.1492417,9.92572111 C35.0389965,9.92572111 37.3892023,12.1939542 37.3892023,14.9840569 L37.3892023,20.3269647 Z" id="Shape"></path>
                    <path d="M31.2487135,23.0123228 C31.2487135,26.9583253 27.9230954,30.1711147 23.8342364,30.1711147 C19.7453774,30.1711147 16.4207194,26.9583253 16.4207194,23.0123228 C16.4207194,22.0631317 16.6165699,21.1556531 16.9660286,20.3269647 L12.9194119,20.3269647 L12.9194119,31.0424425 C12.9194119,32.4272975 14.0839542,33.5489003 15.517311,33.5489003 L32.1482816,33.5489003 C33.5797183,33.5489003 34.7461808,32.4272975 34.7461808,31.0424425 L34.7461808,20.3269647 L30.697644,20.3269647 C31.0499828,21.1556531 31.2487135,22.0631317 31.2487135,23.0123228 Z" id="Shape"></path>
                </g>
            </g>
        </g>
    </g>
</svg>