<?xml version="1.0" encoding="UTF-8"?>
<svg width="49px" height="47px" viewBox="0 0 49 47" version="1.1" xmlns="http://www.w3.org/2000/svg" xmlns:xlink="http://www.w3.org/1999/xlink">
    <!-- Generator: Sketch 45.2 (43514) - http://www.bohemiancoding.com/sketch -->
    <title>linkedin</title>
    <desc>Created with Sketch.</desc>
    <defs></defs>
    <g id="Page-1" stroke="none" stroke-width="1" fill="none" fill-rule="evenodd">
        <g id="Desktop-HD" transform="translate(-344.000000, -951.000000)" fill-rule="nonzero" fill="#FFFFFF">
            <g id="linkedin" transform="translate(344.583548, 951.000000)">
                <g id="Group">
                    <path d="M24.1661562,46.668114 C10.8195567,46.668114 0,36.3133007 0,23.5399912 C0,10.7666817 10.8195567,0.411868421 24.1661562,0.411868421 C37.5127557,0.411868421 48.3323124,10.7666817 48.3323124,23.5399912 C48.3323124,36.3133007 37.5127557,46.668114 24.1661562,46.668114 Z M38.6051954,25.4010263 C38.6051954,20.2949298 35.7559859,17.9185439 31.9556039,17.9185439 C28.8862634,17.9185439 27.5172298,19.5346842 26.7495716,20.6651579 L26.7495716,20.7195789 L26.7112318,20.7195789 C26.7215706,20.7018509 26.7379404,20.6837105 26.7495716,20.6651579 L26.7495716,18.3089737 L20.9723189,18.3089737 C21.0498602,19.8686316 20.9723189,34.9358421 20.9723189,34.9358421 L26.7491408,34.9358421 L26.7491408,25.6496316 C26.7491408,25.1511842 26.7883422,24.6576842 26.9404092,24.3022982 C27.3591319,23.3078772 28.3072889,22.280886 29.9033459,22.280886 C31.9948053,22.280886 32.8288043,23.8063246 32.8288043,26.0400614 L32.8288043,34.9362544 L38.6051954,34.9362544 L38.6051954,25.4010263 Z M14.9292722,10.2942368 C12.9532631,10.2942368 11.6604784,11.535614 11.6604784,13.1665965 C11.6604784,14.7629474 12.9157848,16.040193 14.8534541,16.040193 L14.8909323,16.040193 C16.905712,16.040193 18.1584337,14.7629474 18.1584337,13.1665965 C18.1200939,11.535614 16.905712,10.2942368 14.9292722,10.2942368 Z M12.0038137,34.9362544 L17.7784817,34.9362544 L17.7784817,18.3089737 L12.0038137,18.3089737 L12.0038137,34.9362544 Z" id="Combined-Shape"></path>
                </g>
            </g>
        </g>
    </g>
</svg>