<?xml version="1.0" encoding="UTF-8"?>
<svg width="34px" height="42px" viewBox="0 0 34 42" version="1.1" xmlns="http://www.w3.org/2000/svg" xmlns:xlink="http://www.w3.org/1999/xlink">
    <!-- Generator: Sketch 45.2 (43514) - http://www.bohemiancoding.com/sketch -->
    <title>resume</title>
    <desc>Created with Sketch.</desc>
    <defs></defs>
    <g id="Page-1" stroke="none" stroke-width="1" fill="none" fill-rule="evenodd">
        <g id="Desktop-HD" transform="translate(-460.000000, -955.000000)" fill-rule="nonzero" fill="#FFFFFF">
            <g id="resume" transform="translate(460.195373, 955.569444)">
                <g id="Group">
                    <path d="M23.1801146,0 L0.352131534,0 L0.352131534,40.4722222 L33.4524957,40.4722222 L33.4524957,9.83879722 L23.1801146,0 Z M23.5928128,2.30286944 L31.0481416,9.44351852 L23.5928128,9.44351852 L23.5928128,2.30286944 Z M1.76065767,39.1231481 L1.76065767,1.34907407 L22.1842866,1.34907407 L22.1842866,10.7925926 L32.0439696,10.7925926 L32.0439696,39.1231481 L1.76065767,39.1231481 Z" id="Shape"></path>
                    <path d="M20.0714974,24.9578704 C20.4602506,24.9578704 20.7757605,24.6563523 20.7757605,24.2833333 C20.7757605,23.9103144 20.4602506,23.6087963 20.0714974,23.6087963 L8.09902528,23.6087963 C7.71027207,23.6087963 7.39476221,23.9103144 7.39476221,24.2833333 C7.39476221,24.6563523 7.71027207,24.9578704 8.09902528,24.9578704 L20.0714974,24.9578704 Z" id="Shape"></path>
                    <path d="M27.1141281,20.2361111 L22.1842866,20.2361111 C21.7955334,20.2361111 21.4800236,20.5376292 21.4800236,20.9106481 C21.4800236,21.2836671 21.7955334,21.5851852 22.1842866,21.5851852 L27.1141281,21.5851852 C27.5028813,21.5851852 27.8183912,21.2836671 27.8183912,20.9106481 C27.8183912,20.5376292 27.5028813,20.2361111 27.1141281,20.2361111 Z" id="Shape"></path>
                    <path d="M10.9160775,20.9106481 C10.9160775,21.2836671 11.2315874,21.5851852 11.6203406,21.5851852 L18.6629713,21.5851852 C19.0517245,21.5851852 19.3672344,21.2836671 19.3672344,20.9106481 C19.3672344,20.5376292 19.0517245,20.2361111 18.6629713,20.2361111 L11.6203406,20.2361111 C11.2315874,20.2361111 10.9160775,20.5376292 10.9160775,20.9106481 Z" id="Shape"></path>
                    <path d="M7.5989985,20.4317269 C7.47223115,20.5592144 7.39476221,20.734594 7.39476221,20.9106481 C7.39476221,21.0860278 7.47223115,21.2614074 7.5989985,21.3828241 C7.72576585,21.5103116 7.90887425,21.5851852 8.09902528,21.5851852 C8.28917631,21.5851852 8.46524207,21.5109861 8.59905206,21.3895694 C8.72581941,21.2614074 8.80328835,21.0860278 8.80328835,20.9106481 C8.80328835,20.734594 8.72581941,20.5592144 8.59905206,20.4317269 C8.33847472,20.1821481 7.8525332,20.1888935 7.5989985,20.4317269 Z" id="Shape"></path>
                    <path d="M23.092786,23.804412 C22.9660186,23.9318995 22.8885497,24.1005338 22.8885497,24.2833333 C22.8885497,24.4654583 22.958976,24.6340926 23.092786,24.7622546 C23.226596,24.8836713 23.4097044,24.9578704 23.5928128,24.9578704 C23.7759212,24.9578704 23.9590296,24.8836713 24.0928395,24.7622546 C24.2266495,24.6340926 24.2970758,24.4654583 24.2970758,24.2833333 C24.2970758,24.1072792 24.2196069,23.9318995 24.0928395,23.804412 C23.8252196,23.5548333 23.360406,23.5548333 23.092786,23.804412 Z" id="Shape"></path>
                    <path d="M26.6141013,23.804412 C26.487334,23.9318995 26.409865,24.1005338 26.409865,24.2833333 C26.409865,24.4654583 26.4802913,24.6340926 26.6141013,24.7622546 C26.7479113,24.8836713 26.9310197,24.9578704 27.1141281,24.9578704 C27.2972365,24.9578704 27.4803449,24.8836713 27.6141549,24.7555093 C27.7479649,24.6273472 27.8183912,24.458713 27.8183912,24.2833333 C27.8183912,24.1072792 27.7409222,23.9318995 27.6141549,23.804412 C27.3465349,23.5548333 26.8817213,23.5548333 26.6141013,23.804412 Z" id="Shape"></path>
                    <path d="M11.9900787,27.0934546 C10.4477426,27.8624269 9.92870073,29.3335921 9.73925396,30.8587204 C9.44768905,30.624656 9.15612414,30.3912662 8.86455923,30.1572019 C8.17438143,29.6034069 7.17291934,30.5524806 7.86873126,31.1116718 C8.52721722,31.6398343 9.18640746,32.1686713 9.84489342,32.6975083 C10.3082985,33.0691782 11.0252383,32.8344394 11.0470705,32.2206106 C11.0984817,30.7595634 11.1703165,29.021956 12.7006802,28.2590546 C13.5056528,27.8577051 12.7936429,26.6927796 11.9900787,27.0934546 Z" id="Shape"></path>
                    <path d="M21.4483317,29.7524796 C20.4215162,29.6904222 18.9186188,31.2061069 18.1270271,29.8556838 C17.9439187,29.5426986 17.4840349,29.4253292 17.1635952,29.613525 C16.1663587,30.1996977 14.8627678,31.042869 13.8141201,29.9507935 C13.1992984,29.3106579 12.204879,30.2664769 12.8182921,30.9045889 C14.135264,32.2759227 15.829721,31.8590588 17.3248715,31.0819921 C17.6615092,31.4428694 18.0791372,31.7066134 18.6186027,31.8111667 C19.1763791,31.9190926 21.4532616,31.0415199 21.5765076,31.2034088 C22.1061134,31.8975074 23.3287141,31.224994 22.7927699,30.5228009 C22.4286659,30.0459032 22.0934367,29.7916028 21.4483317,29.7524796 Z" id="Shape"></path>
                    <path d="M15.9628267,16.163931 L16.4375,15.8408278 L16.1952335,15.3335759 C15.9755034,14.8735417 15.6226676,14.516037 15.1740521,14.3001852 L13.6810144,13.5703361 C14.3676708,13.1500995 14.8613593,12.5173838 15.1564455,11.6809579 C15.6381614,11.3996759 15.9416988,10.899844 15.9416988,10.3426764 L15.9416988,9.89276019 C15.9416988,9.43609861 15.7346455,9.01046574 15.3825139,8.71569306 C15.131092,7.43542176 14.2247054,6.05059722 11.4808965,6.05059722 C11.3731443,6.05059722 11.2675048,6.05464444 11.1632739,6.06273889 C10.7949443,6.09174398 10.2582958,6.06273889 9.79911632,5.76729167 C9.58572461,5.62968611 9.47656384,5.52310926 9.42303985,5.45767917 C9.19978845,5.18584074 8.8251205,5.09073102 8.49059554,5.2215912 C8.15677485,5.35312593 7.96098972,5.67285648 8.00183698,6.01687037 C8.02296487,6.19022639 8.05324818,6.3925875 8.09902528,6.61316111 C8.15818338,6.89646667 8.16170469,6.97808565 8.1595919,6.99967083 C8.1539578,7.02327963 8.11311054,7.10692222 8.08071444,7.17437593 C8.03141602,7.27555648 7.9708494,7.40034583 7.89971883,7.56695648 C7.74689374,7.92378657 7.63562018,8.31231991 7.56801093,8.72648565 C7.22362629,9.02193287 7.02009426,9.44351852 7.02009426,9.89343472 L7.02009426,10.3433509 C7.02009426,10.9005185 7.32363164,11.4003505 7.80534758,11.6816324 C8.09902528,12.5146856 8.5906009,13.1460523 9.27232755,13.5656144 L7.72013175,14.2988361 C7.28841849,14.5241315 6.95178074,14.8836597 6.74684019,15.3382977 L6.52147601,15.8381296 L6.98347258,16.1544875 C8.30819141,17.0597162 9.8625,17.537963 11.4808965,17.537963 C13.093659,17.537963 14.6430377,17.0630889 15.9628267,16.163931 Z M8.46242502,15.4516199 L10.1843482,14.6394773 C10.5498608,14.4661213 10.7773377,14.1160366 10.7773377,13.7254796 L10.7773377,12.766288 L10.3519628,12.5902338 C9.70967491,12.3258153 9.29134265,11.8138417 9.07090831,11.0246333 L8.97019869,10.6651051 L8.59905206,10.554481 C8.51735754,10.5301977 8.43002892,10.453975 8.43002892,10.3433509 L8.43002892,9.89343472 C8.43002892,9.79765046 8.49693391,9.73019676 8.55961332,9.69849352 L8.8899127,9.52985926 L8.92864717,9.17302917 C8.97231148,8.77167963 9.06456994,8.40405694 9.20401403,8.07893009 C9.26458066,7.93660278 9.31669612,7.83070046 9.35895191,7.74368519 C9.46811268,7.51973889 9.53431341,7.35380278 9.55825835,7.16695602 C10.0723704,7.37268981 10.6562045,7.45363426 11.2766602,7.40844028 C11.3435652,7.40304398 11.4118787,7.40034583 11.4816008,7.40034583 C13.5373447,7.40034583 13.9246894,8.30017824 14.0324416,9.17977454 L14.0754017,9.53255741 L14.4035883,9.69781898 C14.4662677,9.72952222 14.5338769,9.79697593 14.5338769,9.89343472 L14.5338769,10.3433509 C14.5338769,10.453975 14.445844,10.5301977 14.3648538,10.554481 L13.9937072,10.6651051 L13.8929975,11.0246333 C13.6725632,11.8138417 13.2535267,12.3264898 12.611943,12.5902338 L12.1865681,12.766288 L12.1865681,13.7295269 C12.1865681,14.114013 12.408411,14.4620741 12.7675852,14.6381282 L14.4683805,15.4698324 C12.622507,16.4202551 10.3019602,16.4141843 8.46242502,15.4516199 Z" id="Shape"></path>
                </g>
            </g>
        </g>
    </g>
</svg>